<svg width="31" height="30" viewBox="0 0 31 30" fill="none" xmlns="http://www.w3.org/2000/svg">
<path d="M15.5151 1C7.78714 1 1.51514 7.272 1.51514 15C1.51514 22.728 7.78714 29 15.5151 29C23.2431 29 29.5151 22.728 29.5151 15C29.5151 7.272 23.2431 1 15.5151 1ZM15.5151 5.2C17.8391 5.2 19.7151 7.076 19.7151 9.4C19.7151 11.724 17.8391 13.6 15.5151 13.6C13.1911 13.6 11.3151 11.724 11.3151 9.4C11.3151 7.076 13.1911 5.2 15.5151 5.2ZM15.5151 25.08C12.0151 25.08 8.92114 23.288 7.11514 20.572C7.15714 17.786 12.7151 16.26 15.5151 16.26C18.3011 16.26 23.8731 17.786 23.9151 20.572C22.1091 23.288 19.0151 25.08 15.5151 25.08Z" fill="currentColor"/>
</svg>
