<svg width="20" height="19" viewBox="0 0 20 19" fill="currentColor" xmlns="http://www.w3.org/2000/svg">
<path d="M12.5 0C13.4428 0 13.9141 7.55312e-05 14.207 0.292969C14.4999 0.585862 14.5 1.05719 14.5 2V17C14.5 17.9428 14.4999 18.4141 14.207 18.707C13.9141 18.9999 13.4428 19 12.5 19H6.92871C4.10036 19 2.6863 18.9997 1.80762 18.1211C0.928938 17.2424 0.928711 15.8284 0.928711 13V6C0.928711 3.17157 0.928938 1.75759 1.80762 0.878906C2.6863 0.000296361 4.10036 0 6.92871 0H12.5ZM17.1904 0C17.8104 0 18.1207 0.000211011 18.375 0.0683594C19.065 0.253365 19.6042 0.792332 19.7891 1.48242C19.8572 1.73674 19.8574 2.04708 19.8574 2.66699V16.333C19.8574 16.9529 19.8572 17.2633 19.7891 17.5176C19.6042 18.2077 19.065 18.7466 18.375 18.9316C18.1207 18.9998 17.8104 19 17.1904 19C16.8807 19 16.7257 18.9998 16.5986 18.9658C16.2536 18.8734 15.9841 18.6038 15.8916 18.2588C15.8575 18.1317 15.8574 17.9768 15.8574 17.667V1.33301C15.8574 1.02323 15.8575 0.868333 15.8916 0.741211C15.9841 0.396155 16.2536 0.12664 16.5986 0.0341797C16.7257 0.000182938 16.8807 0 17.1904 0Z" fill="currentColor"/>
</svg>
