<svg width="70" height="70" viewBox="0 0 70 70" fill="none" xmlns="http://www.w3.org/2000/svg">
<rect opacity="0.85" width="70" height="70" rx="35" fill="url(#paint0_linear_56_52)"/>
<rect opacity="0.6" x="9" y="9" width="52" height="52" rx="18" fill="url(#paint1_linear_56_52)"/>
<rect x="16" y="16" width="38" height="38" rx="8" fill="url(#paint2_linear_56_52)"/>
<path d="M30.4238 21L30.5781 21.0078C31.3343 21.0848 31.9238 21.7235 31.9238 22.5C31.9238 23.2765 31.3343 23.9152 30.5781 23.9922L30.4238 24H26.5C25.1193 24 24 25.1193 24 26.5V43.5C24 44.8807 25.1193 46 26.5 46H30.4248L30.5781 46.0078C31.3343 46.0848 31.9248 46.7235 31.9248 47.5C31.9248 48.2765 31.3343 48.9152 30.5781 48.9922L30.4248 49H26.5C23.4625 49 21 46.5375 21 43.5V26.5C21 23.4624 23.4624 21 26.5 21H30.4238ZM43.4238 21C46.4614 21 48.9238 23.4624 48.9238 26.5V43.5C48.9238 46.5374 46.4621 48.9997 43.4248 49H39.5L39.3457 48.9922C38.5898 48.9149 37.999 48.2763 37.999 47.5C37.999 46.7237 38.5898 46.0851 39.3457 46.0078L39.499 46H43.4238C44.8045 46 45.9238 44.8807 45.9238 43.5V26.5C45.9238 25.1193 44.8045 24 43.4238 24H39.5L39.3457 23.9922C38.5898 23.9149 38 23.2763 38 22.5C38 21.7237 38.5898 21.0851 39.3457 21.0078L39.5 21H43.4238ZM42.7246 25.3115C43.8341 25.424 44.7002 26.3608 44.7002 27.5V42.5C44.7002 43.715 43.715 44.7002 42.5 44.7002H27.5C26.285 44.7002 25.2998 43.715 25.2998 42.5V27.5C25.2998 26.285 26.285 25.2998 27.5 25.2998H42.5L42.7246 25.3115ZM40.9082 36.5898C39.7573 35.4391 37.9137 35.4033 36.7197 36.4824L36.6064 36.5898L30.6973 42.5H41.5L41.6025 42.4951C42.073 42.4472 42.4472 42.073 42.4951 41.6025L42.5 41.5V38.1816L40.9082 36.5898ZM28.3975 27.5049C27.8933 27.5562 27.5 27.9823 27.5 28.5V41.5L27.5049 41.6025C27.5413 41.9601 27.7667 42.2609 28.0791 42.4062L35.251 35.2344L35.4365 35.0586C37.3829 33.3002 40.3879 33.3587 42.2637 35.2344L42.5 35.4707V28.5C42.5 27.9823 42.1067 27.5562 41.6025 27.5049L41.5 27.5H28.5L28.3975 27.5049ZM31.5703 29.25C32.8933 29.2501 33.9657 30.3225 33.9658 31.6455C33.9658 32.9686 32.8934 34.0409 31.5703 34.041C30.2471 34.041 29.1748 32.9687 29.1748 31.6455C29.1749 30.3224 30.2472 29.25 31.5703 29.25ZM31.5703 31.166C31.3058 31.166 31.091 31.381 31.0908 31.6455C31.0908 31.9101 31.3057 32.125 31.5703 32.125C31.8349 32.1249 32.0498 31.9101 32.0498 31.6455C32.0497 31.381 31.8348 31.1661 31.5703 31.166Z" fill="black"/>
<defs>
<linearGradient id="paint0_linear_56_52" x1="35" y1="-8.9407e-07" x2="65" y2="73" gradientUnits="userSpaceOnUse">
<stop stop-color="#D19201" stop-opacity="0.2"/>
<stop offset="1" stop-color="#FF7272"/>
</linearGradient>
<linearGradient id="paint1_linear_56_52" x1="35" y1="9" x2="53.2" y2="87.65" gradientUnits="userSpaceOnUse">
<stop stop-color="#F9A238" stop-opacity="0.6"/>
<stop offset="1" stop-color="#EE8282"/>
</linearGradient>
<linearGradient id="paint2_linear_56_52" x1="35" y1="16" x2="48.3" y2="73.475" gradientUnits="userSpaceOnUse">
<stop stop-color="#F9A238"/>
<stop offset="1" stop-color="#FFA6A6"/>
</linearGradient>
</defs>
</svg>
