<svg width="23" height="20" viewBox="0 0 23 20" fill="currentColor" xmlns="http://www.w3.org/2000/svg">
<path d="M8.2 20C8.75228 20 9.2 19.5523 9.2 19V13.9412C9.2 13.3889 9.64771 12.9412 10.2 12.9412H12.8C13.3523 12.9412 13.8 13.3889 13.8 13.9412V19C13.8 19.5523 14.2477 20 14.8 20H18.55C19.1023 20 19.55 19.5523 19.55 19V11.5882C19.55 11.036 19.9977 10.5882 20.55 10.5882H21.7188C22.1742 10.5882 22.3925 10.0289 22.0574 9.7204L12.1773 0.62364C11.7946 0.271197 11.2054 0.271198 10.8227 0.62364L0.942564 9.7204C0.607491 10.0289 0.825768 10.5882 1.28123 10.5882H2.45C3.00228 10.5882 3.45 11.036 3.45 11.5882V19C3.45 19.5523 3.89772 20 4.45 20H8.2Z" fill="currentColor"/>
</svg>
