<svg xmlns="http://www.w3.org/2000/svg" width="20" height="21" viewBox="0 0 20 21" fill="none">
<path d="M19.2827 19.0415L15.9276 15.7613L15.8489 15.6417C15.7027 15.4961 15.5028 15.4141 15.2941 15.4141C15.0854 15.4141 14.8855 15.4961 14.7393 15.6417C11.888 18.2576 7.49436 18.3997 4.47233 15.9739C1.4503 13.5481 0.737581 9.30709 2.80685 6.06343C4.87612 2.81978 9.08527 1.58006 12.6428 3.16645C16.2003 4.75283 18.0023 8.67306 16.8537 12.3272C16.771 12.5912 16.8386 12.8783 17.0311 13.0804C17.2236 13.2824 17.5117 13.3687 17.7869 13.3067C18.0621 13.2448 18.2825 13.044 18.3653 12.78C19.7383 8.44354 17.6646 3.77689 13.4854 1.7989C9.30627 -0.179086 4.27598 1.12519 1.64862 4.868C-0.978728 8.61081 -0.414652 13.6689 2.97595 16.7702C6.36655 19.8715 11.5661 20.0853 15.2111 17.2733L18.1818 20.1777C18.4886 20.4763 18.9846 20.4763 19.2914 20.1777C19.5979 19.8748 19.5979 19.3871 19.2914 19.0842L19.2827 19.0415Z" fill="currentColor" fill-opacity="0.6"/>
</svg>