<svg width="100" height="28" viewBox="0 0 100 28" fill="none" xmlns="http://www.w3.org/2000/svg">
<path d="M13.813 0.73291C21.1403 0.733054 27.0797 6.67324 27.0797 14.0005C27.0795 21.3276 21.1402 27.2669 13.813 27.2671C6.4858 27.2671 0.545616 21.3277 0.545471 14.0005C0.545471 6.67315 6.48572 0.73291 13.813 0.73291ZM18.1168 9.13428L17.3121 11.4673L19.3111 11.0718L17.4078 16.436L16.4078 16.1538L13.0435 15.8716L14.6314 14.5776C15.2515 14.0745 15.7036 13.5903 15.9879 13.1274C16.281 12.6571 16.4494 12.1557 16.4918 11.6235C16.5579 10.7919 16.3326 10.1336 15.817 9.64893C15.3097 9.165 14.5349 8.88044 13.4927 8.79736C12.8995 8.75014 12.315 8.79322 11.7418 8.92334C11.1686 9.0535 10.6698 9.25134 10.2476 9.51904L10.8404 11.2495C11.2175 11.0117 11.5843 10.8481 11.941 10.7593C12.3068 10.6629 12.6596 10.6278 12.9986 10.6548C13.4051 10.6872 13.7085 10.7906 13.9078 10.9653C14.1155 11.1409 14.2073 11.3876 14.1822 11.7036C14.1617 11.9615 14.0688 12.2097 13.9048 12.4478C13.7409 12.6858 13.4795 12.9578 13.1226 13.2642L11.1412 14.9917C11.1195 14.9128 11.0948 14.8325 11.065 14.7524C10.8644 14.2145 10.5458 13.8237 10.1099 13.5806C9.7569 13.3788 9.36375 13.2969 8.93121 13.3315C9.20089 13.0921 9.38907 12.8077 9.49176 12.4771C9.63257 12.0449 9.61709 11.5974 9.44489 11.1353C9.18776 10.4455 8.73256 10.0015 8.08063 9.8042C7.42589 9.59946 6.65072 9.66418 5.75641 9.99756C5.21853 10.1981 4.72937 10.4714 4.28864 10.8169C3.84503 11.1549 3.50466 11.5276 3.26813 11.9351L4.47223 13.2212C4.89109 12.5386 5.46535 12.0618 6.19293 11.7905C6.54129 11.6608 6.83031 11.626 7.06012 11.687C7.29007 11.7481 7.45223 11.9037 7.54547 12.1538C7.64148 12.4114 7.62157 12.6482 7.4859 12.8628C7.34727 13.0697 7.11435 13.2345 6.78864 13.356L5.58356 13.8042L6.19391 15.4419L7.60309 14.9165C7.96664 14.781 8.26383 14.7434 8.49371 14.8042C8.73119 14.8624 8.90067 15.0244 8.99957 15.2896C9.10396 15.5698 9.08 15.8204 8.92926 16.0405C8.77547 16.2532 8.49375 16.4358 8.08453 16.5884C7.69043 16.7353 7.28636 16.8224 6.87262 16.8472C6.45899 16.8719 6.0416 16.8279 5.62067 16.7173L5.56012 18.5005C5.97725 18.647 6.47704 18.7032 7.05914 18.6675C7.64617 18.6213 8.22412 18.4917 8.79254 18.2798C9.34826 18.0726 9.80938 17.8204 10.1802 17.5288L15.0767 18.0376L20.9654 19.9741L21.7291 17.8237L19.73 17.1392L22.4595 9.26904L20.5211 8.63135L18.1168 9.13428Z" fill="currentColor"/>
<path d="M95.4114 20.9221C93.5702 20.9221 92.1359 20.4585 91.1086 19.5312C90.0946 18.6039 89.5876 17.3305 89.5876 15.711C89.5876 14.7053 89.8011 13.8107 90.2281 13.027C90.655 12.2434 91.2554 11.6361 92.0292 11.2051C92.803 10.761 93.7103 10.539 94.751 10.539C95.7783 10.539 96.6322 10.761 97.3126 11.2051C98.0064 11.6361 98.5267 12.2369 98.8736 13.0074C99.2205 13.765 99.3939 14.6465 99.3939 15.6522V16.3966H92.5696V14.751H96.7722L96.432 15.0253C96.432 14.2808 96.2853 13.7323 95.9917 13.3797C95.7116 13.014 95.3113 12.8311 94.791 12.8311C94.1906 12.8311 93.7303 13.0532 93.4101 13.4972C93.1032 13.9282 92.9498 14.5812 92.9498 15.4563V15.8089C92.9498 16.684 93.1699 17.3239 93.6102 17.7288C94.0505 18.1337 94.6842 18.3361 95.5114 18.3361C96.0451 18.3361 96.5454 18.2774 97.0124 18.1598C97.4927 18.0423 97.9463 17.8529 98.3733 17.5917L99.2939 19.8642C98.7869 20.2038 98.1998 20.465 97.5327 20.6478C96.8656 20.8307 96.1585 20.9221 95.4114 20.9221Z" fill="currentColor"/>
<path d="M83.9536 20.9221C83.0395 20.9221 82.2091 20.8307 81.4624 20.6478C80.7285 20.4519 80.1041 20.1907 79.5891 19.8642L80.4195 17.5917C80.9216 17.879 81.4817 18.1141 82.0997 18.297C82.7305 18.4798 83.3549 18.5712 83.9729 18.5712C84.4622 18.5712 84.8162 18.4994 85.0351 18.3557C85.2668 18.199 85.3827 17.9966 85.3827 17.7484C85.3827 17.5525 85.3119 17.3958 85.1703 17.2782C85.0286 17.1607 84.8162 17.0758 84.533 17.0235L82.4473 16.6513C81.6233 16.4946 80.9796 16.1877 80.5161 15.7306C80.0655 15.2604 79.8402 14.6531 79.8402 13.9086C79.8402 13.2295 80.0204 12.6417 80.3809 12.1454C80.7414 11.6361 81.2564 11.2443 81.9259 10.97C82.5953 10.6827 83.3871 10.539 84.3012 10.539C85.048 10.539 85.7561 10.6239 86.4255 10.7937C87.1079 10.9635 87.7001 11.2312 88.2022 11.5969L87.3139 13.8107C86.9148 13.5364 86.4449 13.3144 85.9041 13.1446C85.3763 12.9617 84.8806 12.8703 84.4171 12.8703C83.8635 12.8703 83.4708 12.9552 83.2391 13.125C83.0073 13.2817 82.8915 13.4776 82.8915 13.7127C82.8915 13.8956 82.9558 14.0523 83.0846 14.1829C83.2133 14.3004 83.4193 14.3853 83.7026 14.4376L85.7882 14.8098C86.638 14.9535 87.2881 15.2538 87.7388 15.711C88.2022 16.155 88.434 16.7623 88.434 17.5329C88.434 18.2512 88.2409 18.8651 87.8546 19.3744C87.4813 19.8707 86.9598 20.256 86.2904 20.5303C85.6209 20.7915 84.842 20.9221 83.9536 20.9221Z" fill="currentColor"/>
<path d="M74.4528 20.9221C72.6116 20.9221 71.1774 20.4585 70.1501 19.5312C69.1361 18.6039 68.6291 17.3305 68.6291 15.711C68.6291 14.7053 68.8426 13.8107 69.2695 13.027C69.6964 12.2434 70.2968 11.6361 71.0707 11.2051C71.8445 10.761 72.7517 10.539 73.7924 10.539C74.8197 10.539 75.6736 10.761 76.354 11.2051C77.0478 11.6361 77.5681 12.2369 77.915 13.0074C78.2619 13.765 78.4354 14.6465 78.4354 15.6522V16.3966H71.611V14.751H75.8137L75.4735 15.0253C75.4735 14.2808 75.3267 13.7323 75.0332 13.3797C74.753 13.014 74.3528 12.8311 73.8324 12.8311C73.232 12.8311 72.7717 13.0532 72.4515 13.4972C72.1447 13.9282 71.9912 14.5812 71.9912 15.4563V15.8089C71.9912 16.684 72.2114 17.3239 72.6517 17.7288C73.0919 18.1337 73.7257 18.3361 74.5529 18.3361C75.0866 18.3361 75.5869 18.2774 76.0538 18.1598C76.5341 18.0423 76.9878 17.8529 77.4147 17.5917L78.3353 19.8642C77.8283 20.2038 77.2413 20.465 76.5742 20.6478C75.9071 20.8307 75.2 20.9221 74.4528 20.9221Z" fill="currentColor"/>
<path d="M63.4929 20.9221C61.6517 20.9221 60.2174 20.4585 59.1901 19.5312C58.1761 18.6039 57.6691 17.3305 57.6691 15.711C57.6691 14.7053 57.8826 13.8107 58.3095 13.027C58.7365 12.2434 59.3369 11.6361 60.1107 11.2051C60.8845 10.761 61.7918 10.539 62.8324 10.539C63.8598 10.539 64.7136 10.761 65.3941 11.2051C66.0878 11.6361 66.6082 12.2369 66.9551 13.0074C67.302 13.765 67.4754 14.6465 67.4754 15.6522V16.3966H60.651V14.751H64.8537L64.5135 15.0253C64.5135 14.2808 64.3667 13.7323 64.0732 13.3797C63.793 13.014 63.3928 12.8311 62.8725 12.8311C62.2721 12.8311 61.8118 13.0532 61.4916 13.4972C61.1847 13.9282 61.0313 14.5812 61.0313 15.4563V15.8089C61.0313 16.684 61.2514 17.3239 61.6917 17.7288C62.132 18.1337 62.7657 18.3361 63.5929 18.3361C64.1266 18.3361 64.6269 18.2774 65.0939 18.1598C65.5742 18.0423 66.0278 17.8529 66.4548 17.5917L67.3753 19.8642C66.8683 20.2038 66.2813 20.465 65.6142 20.6478C64.9471 20.8307 64.24 20.9221 63.4929 20.9221Z" fill="currentColor"/>
<path d="M45.7478 20.73V6.30905H49.3296V12.5203H49.0277C49.3631 11.8802 49.8393 11.3969 50.4564 11.0703C51.0735 10.7307 51.7778 10.5609 52.5693 10.5609C53.7632 10.5609 54.6553 10.907 55.2455 11.5994C55.8358 12.2917 56.1309 13.3432 56.1309 14.754V20.73H52.5491V14.9107C52.5491 14.3098 52.4351 13.8788 52.2071 13.6175C51.9924 13.3563 51.6638 13.2256 51.2211 13.2256C50.6442 13.2256 50.1814 13.402 49.8326 13.7547C49.4973 14.1074 49.3296 14.5711 49.3296 15.1458V20.73H45.7478Z" fill="currentColor"/>
<path d="M39.3474 20.9223C37.8174 20.9223 36.4936 20.6287 35.3761 20.0416C34.2718 19.4544 33.4137 18.6259 32.8017 17.5559C32.203 16.486 31.9036 15.2334 31.9036 13.7982C31.9036 12.3629 32.203 11.1168 32.8017 10.0599C33.4137 8.99001 34.2718 8.16147 35.3761 7.57432C36.4936 6.98717 37.8174 6.69359 39.3474 6.69359C40.3186 6.69359 41.2034 6.82407 42.0016 7.08502C42.7999 7.33293 43.4718 7.69175 44.0173 8.16147L42.9196 10.9994C42.3076 10.5688 41.7422 10.2687 41.2233 10.0991C40.7178 9.91641 40.139 9.82508 39.4871 9.82508C38.2897 9.82508 37.3651 10.1708 36.7132 10.8624C36.0745 11.5409 35.7552 12.5195 35.7552 13.7982C35.7552 15.0899 36.0745 16.0815 36.7132 16.7731C37.3651 17.4516 38.2897 17.7908 39.4871 17.7908C40.139 17.7908 40.7178 17.706 41.2233 17.5364C41.7422 17.3537 42.3076 17.0471 42.9196 16.6165L44.0173 19.4544C43.4718 19.9241 42.7999 20.2895 42.0016 20.5504C41.2034 20.7983 40.3186 20.9223 39.3474 20.9223Z" fill="currentColor"/>
</svg>
